<?xml version="1.0" standalone="no"?>
<!DOCTYPE svg PUBLIC "-//W3C//DTD SVG 20010904//EN"
 "http://www.w3.org/TR/2001/REC-SVG-20010904/DTD/svg10.dtd">
<svg version="1.0" xmlns="http://www.w3.org/2000/svg"
 width="266.000000pt" height="266.000000pt" viewBox="0 0 266.000000 266.000000"
 preserveAspectRatio="xMidYMid meet">
<metadata>
Created by potrace 1.14, written by Peter Selinger 2001-2017
</metadata>
<g transform="translate(0.000000,266.000000) scale(0.100000,-0.100000)"
fill="#000000" stroke="none">
<path d="M1040 2605 l0 -55 -110 0 -110 0 0 -55 0 -55 -85 0 -85 0 0 -55 0
-55 -60 0 -60 0 0 -30 c0 -30 -1 -30 -55 -30 l-55 0 0 -55 c0 -54 0 -55 -30
-55 l-30 0 0 -60 0 -60 -55 0 -55 0 0 -110 0 -110 -55 0 -55 0 0 -85 0 -85
-55 0 -55 0 0 -315 0 -315 55 0 55 0 0 -85 0 -85 55 0 55 0 0 -110 0 -110 55
0 55 0 0 -60 0 -60 30 0 c30 0 30 -1 30 -55 l0 -55 55 0 c54 0 55 0 55 -30 l0
-30 60 0 60 0 0 -55 0 -55 85 0 85 0 0 -55 0 -55 110 0 110 0 0 -60 0 -60 285
0 285 0 0 60 0 60 110 0 110 0 0 55 0 55 85 0 85 0 0 55 0 55 60 0 60 0 0 30
c0 30 1 30 55 30 l55 0 0 55 0 55 55 0 55 0 0 60 0 60 30 0 30 0 0 110 0 110
55 0 55 0 0 85 0 85 60 0 60 0 0 315 0 315 -60 0 -60 0 0 85 0 85 -55 0 -55 0
0 110 0 110 -30 0 -30 0 0 60 0 60 -55 0 -55 0 0 55 0 55 -55 0 c-54 0 -55 0
-55 30 l0 30 -60 0 -60 0 0 55 0 55 -85 0 -85 0 0 55 0 55 -110 0 -110 0 0 55
0 55 -285 0 -285 0 0 -55z"/>
</g>
</svg>
